# xmcd
#
# Track frame offsets: 
#        150
#        18260
#        37784
#        60562
#        82840
#        106903
#        118424
#        139780
#        160693
#        182182
#        206673
#        224634
#        243289
#        264139
#        298969
#
# Disc length: 3994 seconds
#
# Revision: 0
# Processed by: cddbd v1.5.1PL2 Copyright (c) Steve Scherf et al.
# Submitted via: ExactAudioCopy v0.95a5
#
DISCID=d20f980f
DTITLE=Crossroadz - The Best Of Crossroadz
DYEAR=2005
DGENRE=Blues
TTITLE0=Blues Lives in Russia
TTITLE1=В одиночестве Есть Кайф
TTITLE2=Rock' n'Roll's My Prayer
TTITLE3=Diamond Rain
TTITLE4=Hang On Thru The Nite
TTITLE5=Вторник
TTITLE6=Can't Get Away
TTITLE7=By My Hand
TTITLE8=Southern Woman
TTITLE9=ВИО (VIO)
TTITLE10=Poor Mans's Blues
TTITLE11=The Song
TTITLE12=Berlin Blues
TTITLE13=Сколько Можно Терпеть
TTITLE14=Text
EXTD=
EXTT0=
EXTT1=
EXTT2=
EXTT3=
EXTT4=
EXTT5=
EXTT6=
EXTT7=
EXTT8=
EXTT9=
EXTT10=
EXTT11=
EXTT12=
EXTT13=
EXTT14=
PLAYORDER=
